<?xml version="1.0" encoding="UTF-8" standalone="no"?><svg xmlns="http://www.w3.org/2000/svg" xmlns:xlink="http://www.w3.org/1999/xlink" contentScriptType="application/ecmascript" contentStyleType="text/css" height="67px" preserveAspectRatio="none" style="width:132px;height:67px;" version="1.1" viewBox="0 0 132 67" width="132px" zoomAndPan="magnify"><defs><filter height="300%" id="f14se5vcpvt7lf" width="300%" x="-1" y="-1"><feGaussianBlur result="blurOut" stdDeviation="2.0"/><feColorMatrix in="blurOut" result="blurOut2" type="matrix" values="0 0 0 0 0 0 0 0 0 0 0 0 0 0 0 0 0 0 .4 0"/><feOffset dx="4.0" dy="4.0" in="blurOut2" result="blurOut3"/><feBlend in="SourceGraphic" in2="blurOut3" mode="normal"/></filter></defs><g><!--class A--><rect fill="#FEFECE" filter="url(#f14se5vcpvt7lf)" height="48" id="A" style="stroke: #A80036; stroke-width: 1.5;" width="40" x="6" y="8"/><ellipse cx="21" cy="24" fill="#ADD1B2" rx="11" ry="11" style="stroke: #A80036; stroke-width: 1.0;"/><path d="M23.9688,29.6406 Q23.3906,29.9375 22.75,30.0781 Q22.1094,30.2344 21.4063,30.2344 Q18.9063,30.2344 17.5781,28.5938 Q16.2656,26.9375 16.2656,23.8125 Q16.2656,20.6875 17.5781,19.0313 Q18.9063,17.375 21.4063,17.375 Q22.1094,17.375 22.75,17.5313 Q23.4063,17.6875 23.9688,17.9844 L23.9688,20.7031 Q23.3438,20.125 22.75,19.8594 Q22.1563,19.5781 21.5313,19.5781 Q20.1875,19.5781 19.5,20.6563 Q18.8125,21.7188 18.8125,23.8125 Q18.8125,25.9063 19.5,26.9844 Q20.1875,28.0469 21.5313,28.0469 Q22.1563,28.0469 22.75,27.7813 Q23.3438,27.5 23.9688,26.9219 L23.9688,29.6406 Z "/><text fill="#000000" font-family="sans-serif" font-size="12" lengthAdjust="spacingAndGlyphs" textLength="8" x="35" y="28.1543">A</text><line style="stroke: #A80036; stroke-width: 1.5;" x1="7" x2="45" y1="40" y2="40"/><line style="stroke: #A80036; stroke-width: 1.5;" x1="7" x2="45" y1="48" y2="48"/><!--class B--><rect fill="#FEFECE" filter="url(#f14se5vcpvt7lf)" height="48" id="B" style="stroke: #A80036; stroke-width: 1.5;" width="40" x="81" y="8"/><ellipse cx="96" cy="24" fill="#ADD1B2" rx="11" ry="11" style="stroke: #A80036; stroke-width: 1.0;"/><path d="M98.9688,29.6406 Q98.3906,29.9375 97.75,30.0781 Q97.1094,30.2344 96.4063,30.2344 Q93.9063,30.2344 92.5781,28.5938 Q91.2656,26.9375 91.2656,23.8125 Q91.2656,20.6875 92.5781,19.0313 Q93.9063,17.375 96.4063,17.375 Q97.1094,17.375 97.75,17.5313 Q98.4063,17.6875 98.9688,17.9844 L98.9688,20.7031 Q98.3438,20.125 97.75,19.8594 Q97.1563,19.5781 96.5313,19.5781 Q95.1875,19.5781 94.5,20.6563 Q93.8125,21.7188 93.8125,23.8125 Q93.8125,25.9063 94.5,26.9844 Q95.1875,28.0469 96.5313,28.0469 Q97.1563,28.0469 97.75,27.7813 Q98.3438,27.5 98.9688,26.9219 L98.9688,29.6406 Z "/><text fill="#000000" font-family="sans-serif" font-size="12" lengthAdjust="spacingAndGlyphs" textLength="8" x="110" y="28.1543">B</text><line style="stroke: #A80036; stroke-width: 1.5;" x1="82" x2="120" y1="40" y2="40"/><line style="stroke: #A80036; stroke-width: 1.5;" x1="82" x2="120" y1="48" y2="48"/><!--link A to B--><path d="M46.2148,32 C57.7711,32 69.3273,32 80.8836,32 " fill="none" id="A-B" style="stroke: #A80036; stroke-width: 1.0;"/><!--
@startuml
A-B
@enduml

PlantUML version 1.2018.14(Sat Dec 22 01:33:16 JST 2018)
(GPL source distribution)
Java Runtime: OpenJDK Runtime Environment
JVM: OpenJDK 64-Bit Server VM
Java Version: 11.0.4+11-post-Ubuntu-1ubuntu218.04.3
Operating System: Linux
OS Version: 4.15.0-65-generic
Default Encoding: UTF-8
Language: en
Country: US
--></g></svg>