<?xml version="1.0" encoding="UTF-8" standalone="no"?>
<!DOCTYPE svg PUBLIC "-//W3C//DTD SVG 1.1//EN"
 "http://www.w3.org/Graphics/SVG/1.1/DTD/svg11.dtd">
<!-- Generated by graphviz version 2.40.1 (20161225.0304)
 -->
<!-- Title: %0 Pages: 1 -->
<svg width="228pt" height="402pt"
 viewBox="0.00 0.00 228.00 401.60" xmlns="http://www.w3.org/2000/svg" xmlns:xlink="http://www.w3.org/1999/xlink">
<g id="graph0" class="graph" transform="scale(1 1) rotate(0) translate(4 397.6)">
<title>%0</title>
<polygon fill="#ffffff" stroke="transparent" points="-4,4 -4,-397.6 224,-397.6 224,4 -4,4"/>
<g id="clust1" class="cluster">
<title>cluster1</title>
<polygon fill="none" stroke="#000000" points="85,-236.8 85,-385.6 173,-385.6 173,-236.8 85,-236.8"/>
<text text-anchor="middle" x="129" y="-369" font-family="Times,serif" font-size="14.00" fill="#000000">A</text>
</g>
<g id="clust2" class="cluster">
<title>cluster2</title>
<polygon fill="none" stroke="#000000" points="8,-8 8,-228.8 116,-228.8 116,-8 8,-8"/>
<text text-anchor="middle" x="62" y="-212.2" font-family="Times,serif" font-size="14.00" fill="#000000">B</text>
</g>
<g id="clust3" class="cluster">
<title>cluster3</title>
<polygon fill="none" stroke="#000000" points="124,-80 124,-228.8 212,-228.8 212,-80 124,-80"/>
<text text-anchor="middle" x="168" y="-212.2" font-family="Times,serif" font-size="14.00" fill="#000000">C</text>
</g>
<!-- S1 -->
<g id="node1" class="node">
<title>S1</title>
<ellipse fill="none" stroke="#000000" cx="120" cy="-334.8" rx="27" ry="18"/>
<text text-anchor="middle" x="120" y="-330.6" font-family="Times,serif" font-size="14.00" fill="#000000">S1</text>
</g>
<!-- S1&#45;&gt;S1 -->
<g id="edge3" class="edge">
<title>S1&#45;&gt;S1</title>
<path fill="none" stroke="#000000" d="M139.895,-347.2321C152.688,-350.4753 165,-346.3313 165,-334.8 165,-326.4218 158.5006,-321.9433 150.0395,-321.3644"/>
<polygon fill="#000000" stroke="#000000" points="149.5019,-317.9004 139.895,-322.3679 150.191,-324.8665 149.5019,-317.9004"/>
</g>
<!-- S2 -->
<g id="node2" class="node">
<title>S2</title>
<ellipse fill="none" stroke="#000000" cx="120" cy="-262.8" rx="27" ry="18"/>
<text text-anchor="middle" x="120" y="-258.6" font-family="Times,serif" font-size="14.00" fill="#000000">S2</text>
</g>
<!-- S1&#45;&gt;S2 -->
<g id="edge4" class="edge">
<title>S1&#45;&gt;S2</title>
<path fill="none" stroke="#000000" d="M114.0843,-317.0022C113.2798,-308.9807 113.0571,-299.3231 113.4162,-290.3957"/>
<polygon fill="#000000" stroke="#000000" points="116.9097,-290.6099 114.105,-280.393 109.9262,-290.1289 116.9097,-290.6099"/>
</g>
<!-- S2&#45;&gt;S1 -->
<g id="edge5" class="edge">
<title>S2&#45;&gt;S1</title>
<path fill="none" stroke="#000000" d="M125.895,-280.393C126.7094,-288.3865 126.942,-298.0363 126.5928,-306.9759"/>
<polygon fill="#000000" stroke="#000000" points="123.0976,-306.7891 125.9157,-317.0022 130.0817,-307.2608 123.0976,-306.7891"/>
</g>
<!-- S3 -->
<g id="node3" class="node">
<title>S3</title>
<ellipse fill="none" stroke="#000000" cx="81" cy="-178" rx="27" ry="18"/>
<text text-anchor="middle" x="81" y="-173.8" font-family="Times,serif" font-size="14.00" fill="#000000">S3</text>
</g>
<!-- S2&#45;&gt;S3 -->
<g id="edge1" class="edge">
<title>S2&#45;&gt;S3</title>
<path fill="none" stroke="#000000" d="M111.9192,-245.2294C106.4972,-233.4401 99.2566,-217.6965 93.1453,-204.4082"/>
<polygon fill="#000000" stroke="#000000" points="96.2953,-202.8808 88.937,-195.258 89.9356,-205.8056 96.2953,-202.8808"/>
</g>
<!-- S6 -->
<g id="node6" class="node">
<title>S6</title>
<ellipse fill="none" stroke="#000000" cx="159" cy="-178" rx="27" ry="18"/>
<text text-anchor="middle" x="159" y="-173.8" font-family="Times,serif" font-size="14.00" fill="#000000">S6</text>
</g>
<!-- S2&#45;&gt;S6 -->
<g id="edge2" class="edge">
<title>S2&#45;&gt;S6</title>
<path fill="none" stroke="#000000" d="M128.0808,-245.2294C133.5028,-233.4401 140.7434,-217.6965 146.8547,-204.4082"/>
<polygon fill="#000000" stroke="#000000" points="150.0644,-205.8056 151.063,-195.258 143.7047,-202.8808 150.0644,-205.8056"/>
</g>
<!-- S4 -->
<g id="node4" class="node">
<title>S4</title>
<ellipse fill="none" stroke="#000000" cx="43" cy="-106" rx="27" ry="18"/>
<text text-anchor="middle" x="43" y="-101.8" font-family="Times,serif" font-size="14.00" fill="#000000">S4</text>
</g>
<!-- S3&#45;&gt;S4 -->
<g id="edge6" class="edge">
<title>S3&#45;&gt;S4</title>
<path fill="none" stroke="#000000" d="M71.9945,-160.937C67.5172,-152.4537 62.0048,-142.0092 56.993,-132.513"/>
<polygon fill="#000000" stroke="#000000" points="59.9678,-130.6509 52.2048,-123.4407 53.7771,-133.9182 59.9678,-130.6509"/>
</g>
<!-- S5 -->
<g id="node5" class="node">
<title>S5</title>
<ellipse fill="none" stroke="#000000" cx="81" cy="-34" rx="27" ry="18"/>
<text text-anchor="middle" x="81" y="-29.8" font-family="Times,serif" font-size="14.00" fill="#000000">S5</text>
</g>
<!-- S3&#45;&gt;S5 -->
<g id="edge7" class="edge">
<title>S3&#45;&gt;S5</title>
<path fill="none" stroke="#000000" d="M79.8926,-159.7996C82.3281,-149.4645 86.2317,-136.1925 88,-124 90.8068,-104.6469 91.2577,-99.2823 88,-80 87.014,-74.1639 85.3709,-68.0801 83.6878,-62.3204"/>
<polygon fill="#000000" stroke="#000000" points="86.9515,-61.0156 80.7484,-52.4265 80.2413,-63.0092 86.9515,-61.0156"/>
</g>
<!-- S4&#45;&gt;S4 -->
<g id="edge8" class="edge">
<title>S4&#45;&gt;S4</title>
<path fill="none" stroke="#000000" d="M62.895,-118.4321C75.688,-121.6753 88,-117.5313 88,-106 88,-97.6218 81.5006,-93.1433 73.0395,-92.5644"/>
<polygon fill="#000000" stroke="#000000" points="72.5019,-89.1004 62.895,-93.5679 73.191,-96.0665 72.5019,-89.1004"/>
</g>
<!-- S4&#45;&gt;S5 -->
<g id="edge9" class="edge">
<title>S4&#45;&gt;S5</title>
<path fill="none" stroke="#000000" d="M52.0055,-88.937C56.4828,-80.4537 61.9952,-70.0092 67.007,-60.513"/>
<polygon fill="#000000" stroke="#000000" points="70.2229,-61.9182 71.7952,-51.4407 64.0322,-58.6509 70.2229,-61.9182"/>
</g>
<!-- S5&#45;&gt;S3 -->
<g id="edge10" class="edge">
<title>S5&#45;&gt;S3</title>
<path fill="none" stroke="#000000" d="M95.7414,-49.4122C100.3215,-58.1875 104.2252,-69.495 106,-80 109.2577,-99.2823 108.8068,-104.6469 106,-124 104.6132,-133.5617 101.9133,-143.7873 98.6029,-152.7396"/>
<polygon fill="#000000" stroke="#000000" points="95.2745,-151.6269 94.6434,-162.2029 101.7321,-154.3288 95.2745,-151.6269"/>
</g>
<!-- S7 -->
<g id="node7" class="node">
<title>S7</title>
<ellipse fill="none" stroke="#000000" cx="159" cy="-106" rx="27" ry="18"/>
<text text-anchor="middle" x="159" y="-101.8" font-family="Times,serif" font-size="14.00" fill="#000000">S7</text>
</g>
<!-- S6&#45;&gt;S7 -->
<g id="edge11" class="edge">
<title>S6&#45;&gt;S7</title>
<path fill="none" stroke="#000000" d="M153.0843,-160.2022C152.2798,-152.1807 152.0571,-142.5231 152.4162,-133.5957"/>
<polygon fill="#000000" stroke="#000000" points="155.9097,-133.8099 153.105,-123.593 148.9262,-133.3289 155.9097,-133.8099"/>
</g>
<!-- S7&#45;&gt;S6 -->
<g id="edge13" class="edge">
<title>S7&#45;&gt;S6</title>
<path fill="none" stroke="#000000" d="M164.895,-123.593C165.7094,-131.5865 165.942,-141.2363 165.5928,-150.1759"/>
<polygon fill="#000000" stroke="#000000" points="162.0976,-149.9891 164.9157,-160.2022 169.0817,-150.4608 162.0976,-149.9891"/>
</g>
<!-- S7&#45;&gt;S7 -->
<g id="edge12" class="edge">
<title>S7&#45;&gt;S7</title>
<path fill="none" stroke="#000000" d="M178.895,-118.4321C191.688,-121.6753 204,-117.5313 204,-106 204,-97.6218 197.5006,-93.1433 189.0395,-92.5644"/>
<polygon fill="#000000" stroke="#000000" points="188.5019,-89.1004 178.895,-93.5679 189.191,-96.0665 188.5019,-89.1004"/>
</g>
</g>
</svg>
