<?xml version="1.0" encoding="UTF-8" standalone="no"?>
<!DOCTYPE svg PUBLIC "-//W3C//DTD SVG 1.1//EN"
 "http://www.w3.org/Graphics/SVG/1.1/DTD/svg11.dtd">
<!-- Generated by graphviz version 2.40.1 (20161225.0304)
 -->
<!-- Title: %0 Pages: 1 -->
<svg width="161pt" height="255pt"
 viewBox="0.00 0.00 160.50 255.20" xmlns="http://www.w3.org/2000/svg" xmlns:xlink="http://www.w3.org/1999/xlink">
<g id="graph0" class="graph" transform="scale(1 1) rotate(0) translate(4 251.2)">
<title>%0</title>
<polygon fill="#ffffff" stroke="transparent" points="-4,4 -4,-251.2 156.5,-251.2 156.5,4 -4,4"/>
<!-- S1 -->
<g id="node1" class="node">
<title>S1</title>
<ellipse fill="none" stroke="#000000" cx="73" cy="-229.2" rx="27" ry="18"/>
<text text-anchor="middle" x="73" y="-225" font-family="Times,serif" font-size="14.00" fill="#000000">S1</text>
</g>
<!-- S1&#45;&gt;S1 -->
<g id="edge1" class="edge">
<title>S1&#45;&gt;S1</title>
<path fill="none" stroke="#000000" d="M96.1534,-238.662C107.7003,-239.9712 118,-236.8172 118,-229.2 118,-223.9632 113.1318,-220.8359 106.337,-219.8182"/>
<polygon fill="#000000" stroke="#000000" points="106.1807,-216.317 96.1534,-219.738 106.1255,-223.3168 106.1807,-216.317"/>
<text text-anchor="middle" x="126.75" y="-233.4" font-family="Times,serif" font-size="14.00" fill="#000000">A1</text>
<text text-anchor="middle" x="126.75" y="-216.6" font-family="Times,serif" font-size="14.00" fill="#000000">0.4</text>
</g>
<!-- S2 -->
<g id="node2" class="node">
<title>S2</title>
<ellipse fill="none" stroke="#000000" cx="27" cy="-123.6" rx="27" ry="18"/>
<text text-anchor="middle" x="27" y="-119.4" font-family="Times,serif" font-size="14.00" fill="#000000">S2</text>
</g>
<!-- S1&#45;&gt;S2 -->
<g id="edge2" class="edge">
<title>S1&#45;&gt;S2</title>
<path fill="none" stroke="#000000" d="M49.3723,-220.3375C37.5325,-214.551 24.2987,-205.7137 17.5,-193.2 10.4945,-180.3057 12.1735,-164.1561 15.9206,-150.6602"/>
<polygon fill="#000000" stroke="#000000" points="19.3126,-151.5472 19.0797,-140.9549 12.6564,-149.3805 19.3126,-151.5472"/>
<text text-anchor="middle" x="26.75" y="-180.6" font-family="Times,serif" font-size="14.00" fill="#000000">A2</text>
<text text-anchor="middle" x="26.75" y="-163.8" font-family="Times,serif" font-size="14.00" fill="#000000">0.3</text>
</g>
<!-- S3 -->
<g id="node3" class="node">
<title>S3</title>
<ellipse fill="none" stroke="#000000" cx="90" cy="-18" rx="27" ry="18"/>
<text text-anchor="middle" x="90" y="-13.8" font-family="Times,serif" font-size="14.00" fill="#000000">S3</text>
</g>
<!-- S1&#45;&gt;S3 -->
<g id="edge3" class="edge">
<title>S1&#45;&gt;S3</title>
<path fill="none" stroke="#000000" d="M74.5382,-210.8869C75.0111,-205.2176 75.5306,-198.9508 76,-193.2 80.2222,-141.4709 85.0141,-81.1386 87.7548,-46.4715"/>
<polygon fill="#000000" stroke="#000000" points="91.2708,-46.4058 88.5692,-36.1612 84.2925,-45.8545 91.2708,-46.4058"/>
<text text-anchor="middle" x="91.75" y="-127.8" font-family="Times,serif" font-size="14.00" fill="#000000">A1</text>
<text text-anchor="middle" x="91.75" y="-111" font-family="Times,serif" font-size="14.00" fill="#000000">0.3</text>
</g>
<!-- S2&#45;&gt;S1 -->
<g id="edge4" class="edge">
<title>S2&#45;&gt;S1</title>
<path fill="none" stroke="#000000" d="M34.6072,-141.0636C41.8691,-157.7343 52.9151,-183.092 61.2975,-202.3352"/>
<polygon fill="#000000" stroke="#000000" points="58.2016,-203.9921 65.404,-211.7623 64.6191,-201.1966 58.2016,-203.9921"/>
<text text-anchor="middle" x="65.75" y="-180.6" font-family="Times,serif" font-size="14.00" fill="#000000">A1</text>
<text text-anchor="middle" x="65.75" y="-163.8" font-family="Times,serif" font-size="14.00" fill="#000000">0.5</text>
</g>
<!-- S2&#45;&gt;S3 -->
<g id="edge5" class="edge">
<title>S2&#45;&gt;S3</title>
<path fill="none" stroke="#000000" d="M33.303,-105.9963C38.8877,-91.4688 47.8038,-70.6174 58.5,-54 61.3487,-49.5744 64.7174,-45.1337 68.1741,-40.9566"/>
<polygon fill="#000000" stroke="#000000" points="70.893,-43.1639 74.8163,-33.3222 65.612,-38.5692 70.893,-43.1639"/>
<text text-anchor="middle" x="67.75" y="-75" font-family="Times,serif" font-size="14.00" fill="#000000">A2</text>
<text text-anchor="middle" x="67.75" y="-58.2" font-family="Times,serif" font-size="14.00" fill="#000000">0.5</text>
</g>
<!-- S3&#45;&gt;S1 -->
<g id="edge7" class="edge">
<title>S3&#45;&gt;S1</title>
<path fill="none" stroke="#000000" d="M95.676,-35.7888C97.3145,-41.5459 98.9435,-47.9948 100,-54 106.7533,-92.3843 108.443,-102.8802 104,-141.6 101.3158,-164.9918 100.2296,-171.1397 92,-193.2 90.7518,-196.5458 89.2561,-199.9735 87.6593,-203.3202"/>
<polygon fill="#000000" stroke="#000000" points="84.4512,-201.9063 83.0124,-212.403 90.683,-205.0946 84.4512,-201.9063"/>
<text text-anchor="middle" x="115.75" y="-127.8" font-family="Times,serif" font-size="14.00" fill="#000000">A1</text>
<text text-anchor="middle" x="115.75" y="-111" font-family="Times,serif" font-size="14.00" fill="#000000">0.8</text>
</g>
<!-- S3&#45;&gt;S3 -->
<g id="edge6" class="edge">
<title>S3&#45;&gt;S3</title>
<path fill="none" stroke="#000000" d="M113.1534,-27.462C124.7003,-28.7712 135,-25.6172 135,-18 135,-12.7632 130.1318,-9.6359 123.337,-8.6182"/>
<polygon fill="#000000" stroke="#000000" points="123.1807,-5.117 113.1534,-8.538 123.1255,-12.1168 123.1807,-5.117"/>
<text text-anchor="middle" x="143.75" y="-22.2" font-family="Times,serif" font-size="14.00" fill="#000000">A2</text>
<text text-anchor="middle" x="143.75" y="-5.4" font-family="Times,serif" font-size="14.00" fill="#000000">0.2</text>
</g>
</g>
</svg>
