<?xml version="1.0" encoding="UTF-8" standalone="no"?>
<!DOCTYPE svg PUBLIC "-//W3C//DTD SVG 1.1//EN"
 "http://www.w3.org/Graphics/SVG/1.1/DTD/svg11.dtd">
<!-- Generated by graphviz version 2.40.1 (20161225.0304)
 -->
<!-- Title: %0 Pages: 1 -->
<svg width="222pt" height="229pt"
 viewBox="0.00 0.00 222.43 229.23" xmlns="http://www.w3.org/2000/svg" xmlns:xlink="http://www.w3.org/1999/xlink">
<g id="graph0" class="graph" transform="scale(1 1) rotate(0) translate(4 225.2282)">
<title>%0</title>
<polygon fill="#ffffff" stroke="transparent" points="-4,4 -4,-225.2282 218.4282,-225.2282 218.4282,4 -4,4"/>
<text text-anchor="middle" x="107.2141" y="-8.2" font-family="Times,serif" font-size="14.00" fill="#000000">図3</text>
<!-- S1 -->
<g id="node1" class="node">
<title>S1</title>
<ellipse fill="none" stroke="#000000" cx="107.2141" cy="-42.8" rx="27" ry="18"/>
<text text-anchor="middle" x="107.2141" y="-38.6" font-family="Times,serif" font-size="14.00" fill="#000000">S1</text>
</g>
<!-- S2 -->
<g id="node2" class="node">
<title>S2</title>
<ellipse fill="none" stroke="#000000" cx="27" cy="-123.0141" rx="27" ry="18"/>
<text text-anchor="middle" x="27" y="-118.8141" font-family="Times,serif" font-size="14.00" fill="#000000">S2</text>
</g>
<!-- S1&#45;&gt;S2 -->
<g id="edge1" class="edge">
<title>S1&#45;&gt;S2</title>
<path fill="none" stroke="#000000" d="M87.0581,-55.109C73.5667,-66.5686 56.141,-83.7849 43.4735,-98.0655"/>
<polygon fill="#000000" stroke="#000000" points="40.4689,-96.1937 36.6305,-106.0688 45.7894,-100.7428 40.4689,-96.1937"/>
</g>
<!-- S4 -->
<g id="node4" class="node">
<title>S4</title>
<ellipse fill="none" stroke="#000000" cx="187.4282" cy="-123.0141" rx="27" ry="18"/>
<text text-anchor="middle" x="187.4282" y="-118.8141" font-family="Times,serif" font-size="14.00" fill="#000000">S4</text>
</g>
<!-- S1&#45;&gt;S4 -->
<g id="edge2" class="edge">
<title>S1&#45;&gt;S4</title>
<path fill="none" stroke="#000000" d="M116.8067,-59.6989C127.4421,-72.7087 144.7846,-90.5377 159.6695,-104.0211"/>
<polygon fill="#000000" stroke="#000000" points="157.3603,-106.6512 167.1807,-110.6273 161.9833,-101.3949 157.3603,-106.6512"/>
</g>
<!-- S2&#45;&gt;S1 -->
<g id="edge3" class="edge">
<title>S2&#45;&gt;S1</title>
<path fill="none" stroke="#000000" d="M47.156,-110.7051C60.6474,-99.2455 78.0731,-82.0292 90.7406,-67.7486"/>
<polygon fill="#000000" stroke="#000000" points="93.7451,-69.6204 97.5836,-59.7453 88.4247,-65.0713 93.7451,-69.6204"/>
</g>
<!-- S3 -->
<g id="node3" class="node">
<title>S3</title>
<ellipse fill="none" stroke="#000000" cx="107.2141" cy="-203.2282" rx="27" ry="18"/>
<text text-anchor="middle" x="107.2141" y="-199.0282" font-family="Times,serif" font-size="14.00" fill="#000000">S3</text>
</g>
<!-- S2&#45;&gt;S3 -->
<g id="edge4" class="edge">
<title>S2&#45;&gt;S3</title>
<path fill="none" stroke="#000000" d="M36.5926,-139.913C47.228,-152.9228 64.5705,-170.7518 79.4554,-184.2351"/>
<polygon fill="#000000" stroke="#000000" points="77.1462,-186.8653 86.9666,-190.8414 81.7692,-181.609 77.1462,-186.8653"/>
</g>
<!-- S3&#45;&gt;S2 -->
<g id="edge5" class="edge">
<title>S3&#45;&gt;S2</title>
<path fill="none" stroke="#000000" d="M97.6215,-186.3293C86.9861,-173.3195 69.6436,-155.4905 54.7587,-142.0071"/>
<polygon fill="#000000" stroke="#000000" points="57.0679,-139.377 47.2475,-135.4008 52.4449,-144.6333 57.0679,-139.377"/>
</g>
<!-- S3&#45;&gt;S4 -->
<g id="edge6" class="edge">
<title>S3&#45;&gt;S4</title>
<path fill="none" stroke="#000000" d="M127.3701,-190.9191C140.8615,-179.4596 158.2872,-162.2433 170.9547,-147.9627"/>
<polygon fill="#000000" stroke="#000000" points="173.9592,-149.8345 177.7976,-139.9594 168.6388,-145.2854 173.9592,-149.8345"/>
</g>
<!-- S4&#45;&gt;S1 -->
<g id="edge7" class="edge">
<title>S4&#45;&gt;S1</title>
<path fill="none" stroke="#000000" d="M177.8356,-106.1152C167.2002,-93.1054 149.8576,-75.2764 134.9728,-61.793"/>
<polygon fill="#000000" stroke="#000000" points="137.282,-59.1629 127.4616,-55.1868 132.659,-64.4192 137.282,-59.1629"/>
</g>
<!-- S4&#45;&gt;S3 -->
<g id="edge8" class="edge">
<title>S4&#45;&gt;S3</title>
<path fill="none" stroke="#000000" d="M167.2722,-135.3231C153.7808,-146.7827 136.3551,-163.999 123.6876,-178.2796"/>
<polygon fill="#000000" stroke="#000000" points="120.683,-176.4078 116.8446,-186.2829 126.0034,-180.9568 120.683,-176.4078"/>
</g>
</g>
</svg>
