<?xml version="1.0" encoding="UTF-8" standalone="no"?>
<!DOCTYPE svg PUBLIC "-//W3C//DTD SVG 1.1//EN"
 "http://www.w3.org/Graphics/SVG/1.1/DTD/svg11.dtd">
<!-- Generated by graphviz version 2.40.1 (20161225.0304)
 -->
<!-- Title: %0 Pages: 1 -->
<svg width="438pt" height="44pt"
 viewBox="0.00 0.00 438.27 44.00" xmlns="http://www.w3.org/2000/svg" xmlns:xlink="http://www.w3.org/1999/xlink">
<g id="graph0" class="graph" transform="scale(1 1) rotate(0) translate(4 40)">
<title>%0</title>
<polygon fill="#ffffff" stroke="transparent" points="-4,4 -4,-40 434.2727,-40 434.2727,4 -4,4"/>
<!-- 情報源 -->
<g id="node1" class="node">
<title>情報源</title>
<ellipse fill="none" stroke="#000000" cx="37.0514" cy="-18" rx="37.1028" ry="18"/>
<text text-anchor="middle" x="37.0514" y="-13.8" font-family="Times,serif" font-size="14.00" fill="#000000">情報源</text>
</g>
<!-- 符号機 -->
<g id="node3" class="node">
<title>符号機</title>
<polygon fill="none" stroke="#000000" points="146.0514,-36 92.0514,-36 92.0514,0 146.0514,0 146.0514,-36"/>
<text text-anchor="middle" x="119.0514" y="-13.8" font-family="Times,serif" font-size="14.00" fill="#000000">符号機</text>
</g>
<!-- 情報源&#45;&gt;符号機 -->
<g id="edge3" class="edge">
<title>情報源&#45;&gt;符号機</title>
<path fill="none" stroke="#000000" d="M74.2076,-18C76.6709,-18 79.1343,-18 81.5976,-18"/>
<polygon fill="#000000" stroke="#000000" points="81.7247,-21.5001 91.7247,-18 81.7247,-14.5001 81.7247,-21.5001"/>
</g>
<!-- 伝達情報 -->
<g id="node2" class="node">
<title>伝達情報</title>
<ellipse fill="none" stroke="#000000" cx="376.0514" cy="-18" rx="54.4437" ry="18"/>
<text text-anchor="middle" x="376.0514" y="-13.8" font-family="Times,serif" font-size="14.00" fill="#000000">伝達情報</text>
</g>
<!-- 通信路 -->
<g id="node4" class="node">
<title>通信路</title>
<polygon fill="none" stroke="#000000" points="232.2675,-36 163.8352,-36 163.8352,0 232.2675,0 232.2675,-36"/>
<text text-anchor="middle" x="198.0514" y="-13.8" font-family="Times,serif" font-size="14.00" fill="#000000">通信路</text>
</g>
<!-- 符号機&#45;&gt;通信路 -->
<g id="edge1" class="edge">
<title>符号機&#45;&gt;通信路</title>
<path fill="none" stroke="#000000" d="M146.2076,-18C148.6568,-18 151.1059,-18 153.5551,-18"/>
<polygon fill="#000000" stroke="#000000" points="153.6239,-21.5001 163.6239,-18 153.6238,-14.5001 153.6239,-21.5001"/>
</g>
<!-- 復号機 -->
<g id="node5" class="node">
<title>復号機</title>
<polygon fill="none" stroke="#000000" points="304.0514,-36 250.0514,-36 250.0514,0 304.0514,0 304.0514,-36"/>
<text text-anchor="middle" x="277.0514" y="-13.8" font-family="Times,serif" font-size="14.00" fill="#000000">復号機</text>
</g>
<!-- 通信路&#45;&gt;復号機 -->
<g id="edge2" class="edge">
<title>通信路&#45;&gt;復号機</title>
<path fill="none" stroke="#000000" d="M232.3053,-18C234.7632,-18 237.2212,-18 239.6792,-18"/>
<polygon fill="#000000" stroke="#000000" points="239.7842,-21.5001 249.7842,-18 239.7842,-14.5001 239.7842,-21.5001"/>
</g>
<!-- 復号機&#45;&gt;伝達情報 -->
<g id="edge4" class="edge">
<title>復号機&#45;&gt;伝達情報</title>
<path fill="none" stroke="#000000" d="M304.1217,-18C306.6109,-18 309.1002,-18 311.5895,-18"/>
<polygon fill="#000000" stroke="#000000" points="311.8231,-21.5001 321.8231,-18 311.8231,-14.5001 311.8231,-21.5001"/>
</g>
</g>
</svg>
