<?xml version="1.0" encoding="UTF-8" standalone="no"?>
<!DOCTYPE svg PUBLIC "-//W3C//DTD SVG 1.1//EN"
 "http://www.w3.org/Graphics/SVG/1.1/DTD/svg11.dtd">
<!-- Generated by graphviz version 2.40.1 (20161225.0304)
 -->
<!-- Title: %0 Pages: 1 -->
<svg width="188pt" height="150pt"
 viewBox="0.00 0.00 187.50 149.60" xmlns="http://www.w3.org/2000/svg" xmlns:xlink="http://www.w3.org/1999/xlink">
<g id="graph0" class="graph" transform="scale(1 1) rotate(0) translate(4 145.6)">
<title>%0</title>
<polygon fill="#ffffff" stroke="transparent" points="-4,4 -4,-145.6 183.5,-145.6 183.5,4 -4,4"/>
<!-- S1 -->
<g id="node1" class="node">
<title>S1</title>
<ellipse fill="none" stroke="#000000" cx="72" cy="-123.6" rx="27" ry="18"/>
<text text-anchor="middle" x="72" y="-119.4" font-family="Times,serif" font-size="14.00" fill="#000000">S1</text>
</g>
<!-- S1&#45;&gt;S1 -->
<g id="edge1" class="edge">
<title>S1&#45;&gt;S1</title>
<path fill="none" stroke="#000000" d="M95.1534,-133.062C106.7003,-134.3712 117,-131.2172 117,-123.6 117,-118.3632 112.1318,-115.2359 105.337,-114.2182"/>
<polygon fill="#000000" stroke="#000000" points="105.1807,-110.717 95.1534,-114.138 105.1255,-117.7168 105.1807,-110.717"/>
<text text-anchor="middle" x="125.75" y="-127.8" font-family="Times,serif" font-size="14.00" fill="#000000">A1</text>
<text text-anchor="middle" x="125.75" y="-111" font-family="Times,serif" font-size="14.00" fill="#000000">0.4</text>
</g>
<!-- S2 -->
<g id="node2" class="node">
<title>S2</title>
<ellipse fill="none" stroke="#000000" cx="27" cy="-18" rx="27" ry="18"/>
<text text-anchor="middle" x="27" y="-13.8" font-family="Times,serif" font-size="14.00" fill="#000000">S2</text>
</g>
<!-- S1&#45;&gt;S2 -->
<g id="edge2" class="edge">
<title>S1&#45;&gt;S2</title>
<path fill="none" stroke="#000000" d="M47.6375,-115.5639C34.7323,-109.9213 20.03,-100.957 12.5,-87.6 5.0862,-74.4491 8.0667,-57.9767 13.2016,-44.3587"/>
<polygon fill="#000000" stroke="#000000" points="16.4753,-45.6053 17.2035,-35.0355 10.0428,-42.8442 16.4753,-45.6053"/>
<text text-anchor="middle" x="21.75" y="-75" font-family="Times,serif" font-size="14.00" fill="#000000">A2</text>
<text text-anchor="middle" x="21.75" y="-58.2" font-family="Times,serif" font-size="14.00" fill="#000000">0.3</text>
</g>
<!-- S3 -->
<g id="node3" class="node">
<title>S3</title>
<ellipse fill="none" stroke="#000000" cx="117" cy="-18" rx="27" ry="18"/>
<text text-anchor="middle" x="117" y="-13.8" font-family="Times,serif" font-size="14.00" fill="#000000">S3</text>
</g>
<!-- S1&#45;&gt;S3 -->
<g id="edge3" class="edge">
<title>S1&#45;&gt;S3</title>
<path fill="none" stroke="#000000" d="M76.4792,-105.696C80.373,-91.3609 86.6225,-70.9241 94.5,-54 96.2009,-50.3458 98.2018,-46.61 100.2971,-42.9942"/>
<polygon fill="#000000" stroke="#000000" points="103.3422,-44.7236 105.5822,-34.3683 97.3734,-41.0665 103.3422,-44.7236"/>
<text text-anchor="middle" x="103.75" y="-75" font-family="Times,serif" font-size="14.00" fill="#000000">A1</text>
<text text-anchor="middle" x="103.75" y="-58.2" font-family="Times,serif" font-size="14.00" fill="#000000">0.3</text>
</g>
<!-- S2&#45;&gt;S1 -->
<g id="edge4" class="edge">
<title>S2&#45;&gt;S1</title>
<path fill="none" stroke="#000000" d="M34.4419,-35.4636C41.5458,-52.1343 52.3517,-77.492 60.5519,-96.7352"/>
<polygon fill="#000000" stroke="#000000" points="57.429,-98.3349 64.5692,-106.1623 63.8687,-95.5906 57.429,-98.3349"/>
<text text-anchor="middle" x="65.75" y="-75" font-family="Times,serif" font-size="14.00" fill="#000000">A1</text>
<text text-anchor="middle" x="65.75" y="-58.2" font-family="Times,serif" font-size="14.00" fill="#000000">0.5</text>
</g>
<!-- S2&#45;&gt;S3 -->
<g id="edge5" class="edge">
<title>S2&#45;&gt;S3</title>
<path fill="none" stroke="#000000" d="M54.003,-18C62.0277,-18 70.9665,-18 79.5309,-18"/>
<polygon fill="#000000" stroke="#000000" points="79.7051,-21.5001 89.705,-18 79.705,-14.5001 79.7051,-21.5001"/>
<text text-anchor="middle" x="72" y="-42" font-family="Times,serif" font-size="14.00" fill="#000000">A2</text>
<text text-anchor="middle" x="72" y="-25.2" font-family="Times,serif" font-size="14.00" fill="#000000">0.5</text>
</g>
<!-- S3&#45;&gt;S1 -->
<g id="edge7" class="edge">
<title>S3&#45;&gt;S1</title>
<path fill="none" stroke="#000000" d="M119.2869,-36.1103C120.3172,-50.7478 119.8769,-71.4935 112,-87.6 109.037,-93.6586 104.5645,-99.1629 99.6694,-103.9437"/>
<polygon fill="#000000" stroke="#000000" points="97.0101,-101.6196 91.7854,-110.8366 101.6175,-106.8895 97.0101,-101.6196"/>
<text text-anchor="middle" x="127.75" y="-75" font-family="Times,serif" font-size="14.00" fill="#000000">A1</text>
<text text-anchor="middle" x="127.75" y="-58.2" font-family="Times,serif" font-size="14.00" fill="#000000">0.8</text>
</g>
<!-- S3&#45;&gt;S3 -->
<g id="edge6" class="edge">
<title>S3&#45;&gt;S3</title>
<path fill="none" stroke="#000000" d="M140.1534,-27.462C151.7003,-28.7712 162,-25.6172 162,-18 162,-12.7632 157.1318,-9.6359 150.337,-8.6182"/>
<polygon fill="#000000" stroke="#000000" points="150.1807,-5.117 140.1534,-8.538 150.1255,-12.1168 150.1807,-5.117"/>
<text text-anchor="middle" x="170.75" y="-22.2" font-family="Times,serif" font-size="14.00" fill="#000000">A2</text>
<text text-anchor="middle" x="170.75" y="-5.4" font-family="Times,serif" font-size="14.00" fill="#000000">0.2</text>
</g>
</g>
</svg>
