<?xml version="1.0" encoding="UTF-8" standalone="no"?>
<!DOCTYPE svg PUBLIC "-//W3C//DTD SVG 1.1//EN"
 "http://www.w3.org/Graphics/SVG/1.1/DTD/svg11.dtd">
<!-- Generated by graphviz version 2.40.1 (20161225.0304)
 -->
<!-- Title: %0 Pages: 1 -->
<svg width="324pt" height="322pt"
 viewBox="0.00 0.00 324.00 321.60" xmlns="http://www.w3.org/2000/svg" xmlns:xlink="http://www.w3.org/1999/xlink">
<g id="graph0" class="graph" transform="scale(1 1) rotate(0) translate(4 317.6)">
<title>%0</title>
<polygon fill="#ffffff" stroke="transparent" points="-4,4 -4,-317.6 320,-317.6 320,4 -4,4"/>
<g id="clust1" class="cluster">
<title>cluster1</title>
<polygon fill="none" stroke="#000000" points="8,-152 8,-305.6 96,-305.6 96,-152 8,-152"/>
<text text-anchor="middle" x="52" y="-289" font-family="Times,serif" font-size="14.00" fill="#000000">A</text>
</g>
<g id="clust3" class="cluster">
<title>cluster2</title>
<polygon fill="none" stroke="#000000" points="104,-8 104,-228.8 212,-228.8 212,-8 104,-8"/>
<text text-anchor="middle" x="158" y="-212.2" font-family="Times,serif" font-size="14.00" fill="#000000">B</text>
</g>
<g id="clust6" class="cluster">
<title>cluster3</title>
<polygon fill="none" stroke="#000000" points="220,-80 220,-228.8 308,-228.8 308,-80 220,-80"/>
<text text-anchor="middle" x="264" y="-212.2" font-family="Times,serif" font-size="14.00" fill="#000000">C</text>
</g>
<!-- S2 -->
<g id="node1" class="node">
<title>S2</title>
<ellipse fill="none" stroke="#000000" cx="52" cy="-254.8" rx="27" ry="18"/>
<text text-anchor="middle" x="52" y="-250.6" font-family="Times,serif" font-size="14.00" fill="#000000">S2</text>
</g>
<!-- S3 -->
<g id="node2" class="node">
<title>S3</title>
<ellipse fill="none" stroke="#000000" cx="158" cy="-178" rx="27" ry="18"/>
<text text-anchor="middle" x="158" y="-173.8" font-family="Times,serif" font-size="14.00" fill="#000000">S3</text>
</g>
<!-- S2&#45;&gt;S3 -->
<g id="edge1" class="edge">
<title>S2&#45;&gt;S3</title>
<path fill="none" stroke="#000000" d="M74.1139,-244.1401C82.4703,-239.7757 91.9092,-234.4292 100,-228.8 112.2583,-220.2712 124.8475,-209.5284 135.1512,-200.1209"/>
<polygon fill="#000000" stroke="#000000" points="137.6036,-202.6198 142.5416,-193.246 132.8358,-197.4945 137.6036,-202.6198"/>
</g>
<!-- S6 -->
<g id="node3" class="node">
<title>S6</title>
<ellipse fill="none" stroke="#000000" cx="255" cy="-178" rx="27" ry="18"/>
<text text-anchor="middle" x="255" y="-173.8" font-family="Times,serif" font-size="14.00" fill="#000000">S6</text>
</g>
<!-- S2&#45;&gt;S6 -->
<g id="edge2" class="edge">
<title>S2&#45;&gt;S6</title>
<path fill="none" stroke="#000000" d="M78.871,-252.9529C119.267,-249.777 193.3304,-242.2855 216,-228.8 225.9933,-222.8553 234.3302,-213.29 240.6963,-204.0543"/>
<polygon fill="#000000" stroke="#000000" points="243.769,-205.745 246.1858,-195.4294 237.8637,-201.9864 243.769,-205.745"/>
</g>
<!-- S1 -->
<g id="node4" class="node">
<title>S1</title>
<ellipse fill="none" stroke="#000000" cx="43" cy="-178" rx="27" ry="18"/>
<text text-anchor="middle" x="43" y="-173.8" font-family="Times,serif" font-size="14.00" fill="#000000">S1</text>
</g>
<!-- S2&#45;&gt;S1 -->
<g id="edge5" class="edge">
<title>S2&#45;&gt;S1</title>
<path fill="none" stroke="#000000" d="M44.1969,-237.3729C42.1308,-228.0791 40.5113,-216.4209 39.7491,-205.9014"/>
<polygon fill="#000000" stroke="#000000" points="43.2445,-205.7194 39.2878,-195.8911 36.2519,-206.0417 43.2445,-205.7194"/>
</g>
<!-- S4 -->
<g id="node5" class="node">
<title>S4</title>
<ellipse fill="none" stroke="#000000" cx="139" cy="-106" rx="27" ry="18"/>
<text text-anchor="middle" x="139" y="-101.8" font-family="Times,serif" font-size="14.00" fill="#000000">S4</text>
</g>
<!-- S3&#45;&gt;S4 -->
<g id="edge6" class="edge">
<title>S3&#45;&gt;S4</title>
<path fill="none" stroke="#000000" d="M153.3034,-160.2022C151.2024,-152.2406 148.676,-142.6671 146.335,-133.7957"/>
<polygon fill="#000000" stroke="#000000" points="149.6442,-132.6185 143.7084,-123.8425 142.8759,-134.4046 149.6442,-132.6185"/>
</g>
<!-- S5 -->
<g id="node6" class="node">
<title>S5</title>
<ellipse fill="none" stroke="#000000" cx="177" cy="-34" rx="27" ry="18"/>
<text text-anchor="middle" x="177" y="-29.8" font-family="Times,serif" font-size="14.00" fill="#000000">S5</text>
</g>
<!-- S3&#45;&gt;S5 -->
<g id="edge7" class="edge">
<title>S3&#45;&gt;S5</title>
<path fill="none" stroke="#000000" d="M165.2093,-160.3306C171.7369,-150.3691 180.0714,-137.2845 184,-124 190.0195,-103.6453 185.3817,-79.9928 180.863,-62.0445"/>
<polygon fill="#000000" stroke="#000000" points="184.2071,-60.9978 178.2977,-52.2041 177.4335,-62.7636 184.2071,-60.9978"/>
</g>
<!-- S7 -->
<g id="node7" class="node">
<title>S7</title>
<ellipse fill="none" stroke="#000000" cx="255" cy="-106" rx="27" ry="18"/>
<text text-anchor="middle" x="255" y="-101.8" font-family="Times,serif" font-size="14.00" fill="#000000">S7</text>
</g>
<!-- S6&#45;&gt;S7 -->
<g id="edge11" class="edge">
<title>S6&#45;&gt;S7</title>
<path fill="none" stroke="#000000" d="M249.0843,-160.2022C248.2798,-152.1807 248.0571,-142.5231 248.4162,-133.5957"/>
<polygon fill="#000000" stroke="#000000" points="251.9097,-133.8099 249.105,-123.593 244.9262,-133.3289 251.9097,-133.8099"/>
</g>
<!-- S1&#45;&gt;S2 -->
<g id="edge3" class="edge">
<title>S1&#45;&gt;S2</title>
<path fill="none" stroke="#000000" d="M50.77,-195.2788C52.8321,-204.508 54.4535,-216.1002 55.2288,-226.5965"/>
<polygon fill="#000000" stroke="#000000" points="51.7334,-226.7781 55.707,-236.5995 58.7254,-226.4437 51.7334,-226.7781"/>
</g>
<!-- S1&#45;&gt;S1 -->
<g id="edge4" class="edge">
<title>S1&#45;&gt;S1</title>
<path fill="none" stroke="#000000" d="M62.895,-190.4321C75.688,-193.6753 88,-189.5313 88,-178 88,-169.6218 81.5006,-165.1433 73.0395,-164.5644"/>
<polygon fill="#000000" stroke="#000000" points="72.5019,-161.1004 62.895,-165.5679 73.191,-168.0665 72.5019,-161.1004"/>
</g>
<!-- S4&#45;&gt;S4 -->
<g id="edge8" class="edge">
<title>S4&#45;&gt;S4</title>
<path fill="none" stroke="#000000" d="M158.895,-118.4321C171.688,-121.6753 184,-117.5313 184,-106 184,-97.6218 177.5006,-93.1433 169.0395,-92.5644"/>
<polygon fill="#000000" stroke="#000000" points="168.5019,-89.1004 158.895,-93.5679 169.191,-96.0665 168.5019,-89.1004"/>
</g>
<!-- S4&#45;&gt;S5 -->
<g id="edge9" class="edge">
<title>S4&#45;&gt;S5</title>
<path fill="none" stroke="#000000" d="M148.0055,-88.937C152.4828,-80.4537 157.9952,-70.0092 163.007,-60.513"/>
<polygon fill="#000000" stroke="#000000" points="166.2229,-61.9182 167.7952,-51.4407 160.0322,-58.6509 166.2229,-61.9182"/>
</g>
<!-- S5&#45;&gt;S3 -->
<g id="edge10" class="edge">
<title>S5&#45;&gt;S3</title>
<path fill="none" stroke="#000000" d="M190.6837,-49.8547C200.4171,-68.029 209.516,-98.5852 202,-124 198.4713,-135.932 191.3884,-147.7026 183.7705,-157.1939"/>
<polygon fill="#000000" stroke="#000000" points="180.9784,-155.0694 177.0143,-164.8947 186.2403,-159.6859 180.9784,-155.0694"/>
</g>
<!-- S7&#45;&gt;S6 -->
<g id="edge12" class="edge">
<title>S7&#45;&gt;S6</title>
<path fill="none" stroke="#000000" d="M260.895,-123.593C261.7094,-131.5865 261.942,-141.2363 261.5928,-150.1759"/>
<polygon fill="#000000" stroke="#000000" points="258.0976,-149.9891 260.9157,-160.2022 265.0817,-150.4608 258.0976,-149.9891"/>
</g>
<!-- S7&#45;&gt;S7 -->
<g id="edge13" class="edge">
<title>S7&#45;&gt;S7</title>
<path fill="none" stroke="#000000" d="M274.895,-118.4321C287.688,-121.6753 300,-117.5313 300,-106 300,-97.6218 293.5006,-93.1433 285.0395,-92.5644"/>
<polygon fill="#000000" stroke="#000000" points="284.5019,-89.1004 274.895,-93.5679 285.191,-96.0665 284.5019,-89.1004"/>
</g>
</g>
</svg>
