<?xml version="1.0" encoding="UTF-8" standalone="no"?>
<!DOCTYPE svg PUBLIC "-//W3C//DTD SVG 1.1//EN"
 "http://www.w3.org/Graphics/SVG/1.1/DTD/svg11.dtd">
<!-- Generated by graphviz version 2.40.1 (20161225.0304)
 -->
<!-- Title: %0 Pages: 1 -->
<svg width="124pt" height="260pt"
 viewBox="0.00 0.00 124.00 260.00" xmlns="http://www.w3.org/2000/svg" xmlns:xlink="http://www.w3.org/1999/xlink">
<g id="graph0" class="graph" transform="scale(1 1) rotate(0) translate(4 256)">
<title>%0</title>
<polygon fill="#ffffff" stroke="transparent" points="-4,4 -4,-256 120,-256 120,4 -4,4"/>
<!-- S1 -->
<g id="node1" class="node">
<title>S1</title>
<ellipse fill="none" stroke="#000000" cx="27" cy="-234" rx="27" ry="18"/>
<text text-anchor="middle" x="27" y="-229.8" font-family="Times,serif" font-size="14.00" fill="#000000">S1</text>
</g>
<!-- S2 -->
<g id="node2" class="node">
<title>S2</title>
<ellipse fill="none" stroke="#000000" cx="27" cy="-162" rx="27" ry="18"/>
<text text-anchor="middle" x="27" y="-157.8" font-family="Times,serif" font-size="14.00" fill="#000000">S2</text>
</g>
<!-- S1&#45;&gt;S2 -->
<g id="edge1" class="edge">
<title>S1&#45;&gt;S2</title>
<path fill="none" stroke="#000000" d="M21.0843,-216.2022C20.2798,-208.1807 20.0571,-198.5231 20.4162,-189.5957"/>
<polygon fill="#000000" stroke="#000000" points="23.9097,-189.8099 21.105,-179.593 16.9262,-189.3289 23.9097,-189.8099"/>
</g>
<!-- S2&#45;&gt;S1 -->
<g id="edge4" class="edge">
<title>S2&#45;&gt;S1</title>
<path fill="none" stroke="#000000" d="M32.895,-179.593C33.7094,-187.5865 33.942,-197.2363 33.5928,-206.1759"/>
<polygon fill="#000000" stroke="#000000" points="30.0976,-205.9891 32.9157,-216.2022 37.0817,-206.4608 30.0976,-205.9891"/>
</g>
<!-- S3 -->
<g id="node3" class="node">
<title>S3</title>
<ellipse fill="none" stroke="#000000" cx="57" cy="-18" rx="27" ry="18"/>
<text text-anchor="middle" x="57" y="-13.8" font-family="Times,serif" font-size="14.00" fill="#000000">S3</text>
</g>
<!-- S2&#45;&gt;S3 -->
<g id="edge3" class="edge">
<title>S2&#45;&gt;S3</title>
<path fill="none" stroke="#000000" d="M26.1263,-143.7623C28.8243,-118.8232 37.9405,-73.8906 45.9607,-45.0315"/>
<polygon fill="#000000" stroke="#000000" points="49.3903,-45.7744 48.852,-35.1933 42.6744,-43.8006 49.3903,-45.7744"/>
</g>
<!-- S4 -->
<g id="node4" class="node">
<title>S4</title>
<ellipse fill="none" stroke="#000000" cx="89" cy="-90" rx="27" ry="18"/>
<text text-anchor="middle" x="89" y="-85.8" font-family="Times,serif" font-size="14.00" fill="#000000">S4</text>
</g>
<!-- S2&#45;&gt;S4 -->
<g id="edge2" class="edge">
<title>S2&#45;&gt;S4</title>
<path fill="none" stroke="#000000" d="M40.4531,-146.3771C48.6266,-136.8852 59.2268,-124.5753 68.436,-113.8808"/>
<polygon fill="#000000" stroke="#000000" points="71.2708,-115.9525 75.1439,-106.091 65.9664,-111.3848 71.2708,-115.9525"/>
</g>
<!-- S3&#45;&gt;S2 -->
<g id="edge6" class="edge">
<title>S3&#45;&gt;S2</title>
<path fill="none" stroke="#000000" d="M57.8626,-36.3394C55.1563,-61.2488 46.085,-105.9692 38.0874,-134.7954"/>
<polygon fill="#000000" stroke="#000000" points="34.6588,-134.0494 35.2032,-144.6302 41.3759,-136.0193 34.6588,-134.0494"/>
</g>
<!-- S3&#45;&gt;S4 -->
<g id="edge5" class="edge">
<title>S3&#45;&gt;S4</title>
<path fill="none" stroke="#000000" d="M69.8094,-33.9568C74.4651,-42.2724 79.3823,-52.6821 83.263,-62.2657"/>
<polygon fill="#000000" stroke="#000000" points="80.0686,-63.7141 86.8774,-71.8314 86.6168,-61.2397 80.0686,-63.7141"/>
</g>
<!-- S4&#45;&gt;S1 -->
<g id="edge7" class="edge">
<title>S4&#45;&gt;S1</title>
<path fill="none" stroke="#000000" d="M85.471,-108.1711C81.4666,-126.7756 74.0255,-156.2494 63,-180 58.3032,-190.1176 51.8552,-200.4857 45.7129,-209.3974"/>
<polygon fill="#000000" stroke="#000000" points="42.7055,-207.5865 39.7487,-217.7604 48.4046,-211.651 42.7055,-207.5865"/>
</g>
<!-- S4&#45;&gt;S3 -->
<g id="edge8" class="edge">
<title>S4&#45;&gt;S3</title>
<path fill="none" stroke="#000000" d="M76.1781,-74.0209C71.4972,-65.6573 66.5532,-55.1799 62.6649,-45.5558"/>
<polygon fill="#000000" stroke="#000000" points="65.8506,-44.0841 59.0502,-35.9597 59.2999,-46.5516 65.8506,-44.0841"/>
</g>
</g>
</svg>
