<?xml version="1.0" encoding="UTF-8" standalone="no"?>
<!DOCTYPE svg PUBLIC "-//W3C//DTD SVG 1.1//EN"
 "http://www.w3.org/Graphics/SVG/1.1/DTD/svg11.dtd">
<!-- Generated by graphviz version 2.40.1 (20161225.0304)
 -->
<!-- Title: %0 Pages: 1 -->
<svg width="231pt" height="44pt"
 viewBox="0.00 0.00 230.50 44.00" xmlns="http://www.w3.org/2000/svg" xmlns:xlink="http://www.w3.org/1999/xlink">
<g id="graph0" class="graph" transform="scale(1 1) rotate(0) translate(4 40)">
<title>%0</title>
<polygon fill="#ffffff" stroke="transparent" points="-4,4 -4,-40 226.5002,-40 226.5002,4 -4,4"/>
<!-- 送信機 -->
<g id="node1" class="node">
<title>送信機</title>
<polygon fill="none" stroke="#000000" points="57.0006,-36 -.0002,-36 -.0002,0 57.0006,0 57.0006,-36"/>
<text text-anchor="middle" x="28.5002" y="-13.8" font-family="Times,serif" font-size="14.00" fill="#000000">送信機</text>
</g>
<!-- 伝送路 -->
<g id="node2" class="node">
<title>伝送路</title>
<polygon fill="none" stroke="#000000" points="150.3414,-36 74.659,-36 74.659,0 150.3414,0 150.3414,-36"/>
<text text-anchor="middle" x="112.5002" y="-13.8" font-family="Times,serif" font-size="14.00" fill="#000000">伝送路</text>
</g>
<!-- 送信機&#45;&gt;伝送路 -->
<g id="edge1" class="edge">
<title>送信機&#45;&gt;伝送路</title>
<path fill="none" stroke="#000000" d="M57.0471,-18C59.5449,-18 62.0427,-18 64.5406,-18"/>
<polygon fill="#000000" stroke="#000000" points="64.8094,-21.5001 74.8094,-18 64.8094,-14.5001 64.8094,-21.5001"/>
</g>
<!-- 受信機 -->
<g id="node3" class="node">
<title>受信機</title>
<polygon fill="none" stroke="#000000" points="222.5002,-36 168.5002,-36 168.5002,0 222.5002,0 222.5002,-36"/>
<text text-anchor="middle" x="195.5002" y="-13.8" font-family="Times,serif" font-size="14.00" fill="#000000">受信機</text>
</g>
<!-- 伝送路&#45;&gt;受信機 -->
<g id="edge2" class="edge">
<title>伝送路&#45;&gt;受信機</title>
<path fill="none" stroke="#000000" d="M150.4338,-18C153.0524,-18 155.671,-18 158.2896,-18"/>
<polygon fill="#000000" stroke="#000000" points="158.39,-21.5001 168.3899,-18 158.3899,-14.5001 158.39,-21.5001"/>
</g>
</g>
</svg>
