<?xml version="1.0" encoding="UTF-8" standalone="no"?>
<!DOCTYPE svg PUBLIC "-//W3C//DTD SVG 1.1//EN"
 "http://www.w3.org/Graphics/SVG/1.1/DTD/svg11.dtd">
<!-- Generated by graphviz version 2.40.1 (20161225.0304)
 -->
<!-- Title: %0 Pages: 1 -->
<svg width="438pt" height="69pt"
 viewBox="0.00 0.00 438.27 68.80" xmlns="http://www.w3.org/2000/svg" xmlns:xlink="http://www.w3.org/1999/xlink">
<g id="graph0" class="graph" transform="scale(1 1) rotate(0) translate(4 64.8)">
<title>%0</title>
<polygon fill="#ffffff" stroke="transparent" points="-4,4 -4,-64.8 434.2727,-64.8 434.2727,4 -4,4"/>
<text text-anchor="middle" x="215.1364" y="-8.2" font-family="Times,serif" font-size="14.00" fill="#000000">通信系のモデル</text>
<!-- 情報源 -->
<g id="node1" class="node">
<title>情報源</title>
<ellipse fill="none" stroke="#000000" cx="37.0514" cy="-42.8" rx="37.1028" ry="18"/>
<text text-anchor="middle" x="37.0514" y="-38.6" font-family="Times,serif" font-size="14.00" fill="#000000">情報源</text>
</g>
<!-- 符号機 -->
<g id="node3" class="node">
<title>符号機</title>
<polygon fill="none" stroke="#000000" points="146.0514,-60.8 92.0514,-60.8 92.0514,-24.8 146.0514,-24.8 146.0514,-60.8"/>
<text text-anchor="middle" x="119.0514" y="-38.6" font-family="Times,serif" font-size="14.00" fill="#000000">符号機</text>
</g>
<!-- 情報源&#45;&gt;符号機 -->
<g id="edge3" class="edge">
<title>情報源&#45;&gt;符号機</title>
<path fill="none" stroke="#000000" d="M74.2076,-42.8C76.6709,-42.8 79.1343,-42.8 81.5976,-42.8"/>
<polygon fill="#000000" stroke="#000000" points="81.7247,-46.3001 91.7247,-42.8 81.7247,-39.3001 81.7247,-46.3001"/>
</g>
<!-- 伝達情報 -->
<g id="node2" class="node">
<title>伝達情報</title>
<ellipse fill="none" stroke="#000000" cx="376.0514" cy="-42.8" rx="54.4437" ry="18"/>
<text text-anchor="middle" x="376.0514" y="-38.6" font-family="Times,serif" font-size="14.00" fill="#000000">伝達情報</text>
</g>
<!-- 通信路 -->
<g id="node4" class="node">
<title>通信路</title>
<polygon fill="none" stroke="#000000" points="232.2675,-60.8 163.8352,-60.8 163.8352,-24.8 232.2675,-24.8 232.2675,-60.8"/>
<text text-anchor="middle" x="198.0514" y="-38.6" font-family="Times,serif" font-size="14.00" fill="#000000">通信路</text>
</g>
<!-- 符号機&#45;&gt;通信路 -->
<g id="edge1" class="edge">
<title>符号機&#45;&gt;通信路</title>
<path fill="none" stroke="#000000" d="M146.2076,-42.8C148.6568,-42.8 151.1059,-42.8 153.5551,-42.8"/>
<polygon fill="#000000" stroke="#000000" points="153.6239,-46.3001 163.6239,-42.8 153.6238,-39.3001 153.6239,-46.3001"/>
</g>
<!-- 復号機 -->
<g id="node5" class="node">
<title>復号機</title>
<polygon fill="none" stroke="#000000" points="304.0514,-60.8 250.0514,-60.8 250.0514,-24.8 304.0514,-24.8 304.0514,-60.8"/>
<text text-anchor="middle" x="277.0514" y="-38.6" font-family="Times,serif" font-size="14.00" fill="#000000">復号機</text>
</g>
<!-- 通信路&#45;&gt;復号機 -->
<g id="edge2" class="edge">
<title>通信路&#45;&gt;復号機</title>
<path fill="none" stroke="#000000" d="M232.3053,-42.8C234.7632,-42.8 237.2212,-42.8 239.6792,-42.8"/>
<polygon fill="#000000" stroke="#000000" points="239.7842,-46.3001 249.7842,-42.8 239.7842,-39.3001 239.7842,-46.3001"/>
</g>
<!-- 復号機&#45;&gt;伝達情報 -->
<g id="edge4" class="edge">
<title>復号機&#45;&gt;伝達情報</title>
<path fill="none" stroke="#000000" d="M304.1217,-42.8C306.6109,-42.8 309.1002,-42.8 311.5895,-42.8"/>
<polygon fill="#000000" stroke="#000000" points="311.8231,-46.3001 321.8231,-42.8 311.8231,-39.3001 311.8231,-46.3001"/>
</g>
</g>
</svg>
